<svg xmlns="http://www.w3.org/2000/svg" fill-rule="evenodd" clip-rule="evenodd" image-rendering="optimizeQuality" shape-rendering="geometricPrecision" text-rendering="geometricPrecision" viewBox="0 0 6.827 6.827" id="flood"><path fill="#62453b" d="m2.094 1.715.194.335.601-.038-.327-.567z"></path><path fill="#e0e0e0" d="m1.167 3.341.699-1.104 1.305-.053.926 1.604-2.003 1.157z"></path><path fill="#e0e0e0" d="m1.097 3.218.656-1.176 1.347.019.178.309-1.346-.019-.657 1.176z"></path><path fill="#795548" d="m.853 3.422.835-1.494 1.71.025.178.309-1.71-.025-.834 1.494z"></path><path fill="#616161" d="M2.033 2.527a.27.27 0 1 1 .27.467.27.27 0 0 1-.27-.467z"></path><path fill="#616161" d="M2.065 2.582a.252.252 0 1 1 .252.437.252.252 0 0 1-.252-.437z"></path><path fill="none" d="m1.906 3.132.662-.382.585 1.013-.662.383z"></path><path fill="#795548" d="m2.183 3.551.585 1.013.662-.383-.585-1.013z"></path><path fill="#e0e0e0" d="M3.052 3.713a.045.045 0 1 1 .045.077.045.045 0 0 1-.045-.077z"></path><path fill="#e0e0e0" d="M3.008 3.688a.08.08 0 1 1 .08.138.08.08 0 0 1-.08-.138z"></path><path fill="#684b41" d="m2.183 3.551.023.039.662-.382-.023-.04z"></path><path fill="#2196f3" d="M5.973 3.98v1.402H1V3.947c.22.08.723.222 1.275.211.348-.006.714-.074 1.037-.259.937-.533 2.187-.222 2.662-.072v.153z"></path><path fill="#6dbbf7" d="M5.973 4.202v.175c-.408-.136-1.663-.48-2.58.042-.35.2-.743.273-1.116.28A3.966 3.966 0 0 1 1 4.498v-.176c.22.08.723.222 1.275.211.348-.006.714-.074 1.037-.259.937-.533 2.187-.222 2.662-.072z"></path><path fill="#6dbbf7" d="M5.973 4.741v.175c-.408-.136-1.663-.48-2.58.042-.35.2-.743.273-1.116.28A3.966 3.966 0 0 1 1 5.037V4.86c.22.08.723.222 1.275.211.348-.006.714-.074 1.037-.259.937-.533 2.187-.222 2.662-.072z"></path><path fill="none" d="M0 0h6.827v6.827H0z"></path></svg>